<svg width="14" height="14" viewBox="0 0 14 14" fill="none" xmlns="http://www.w3.org/2000/svg">
<g clip-path="url(#clip0_7_1138)">
<mask id="mask0_7_1138" style="mask-type:luminance" maskUnits="userSpaceOnUse" x="0" y="0" width="14" height="14">
<path d="M14 0H0V14H14V0Z" fill="white"/>
</mask>
<g mask="url(#mask0_7_1138)">
<path d="M10 0.5H4C3.44772 0.5 3 0.947715 3 1.5V12.5C3 13.0523 3.44772 13.5 4 13.5H10C10.5523 13.5 11 13.0523 11 12.5V1.5C11 0.947715 10.5523 0.5 10 0.5Z" stroke="white" stroke-linecap="round" stroke-linejoin="round"/>
<path d="M3 3.5H0.5" stroke="white" stroke-linecap="round" stroke-linejoin="round"/>
<path d="M3 7H0.5" stroke="white" stroke-linecap="round" stroke-linejoin="round"/>
<path d="M3 10.5H0.5" stroke="white" stroke-linecap="round" stroke-linejoin="round"/>
<path d="M13.5 3.5H11" stroke="white" stroke-linecap="round" stroke-linejoin="round"/>
<path d="M13.5 7H11" stroke="white" stroke-linecap="round" stroke-linejoin="round"/>
<path d="M13.5 10.5H11" stroke="white" stroke-linecap="round" stroke-linejoin="round"/>
<path d="M6.5 10.5H8.5" stroke="white" stroke-linecap="round" stroke-linejoin="round"/>
</g>
</g>
<defs>
<clipPath id="clip0_7_1138">
<rect width="14" height="14" fill="white"/>
</clipPath>
</defs>
</svg>
