<svg width="17" height="14" viewBox="0 0 17 14" fill="none" xmlns="http://www.w3.org/2000/svg">
<g clip-path="url(#clip0_7_1134)">
<path d="M17.0398 7C17.0398 7.08476 16.9947 7.16679 16.9203 7.20507L14.5536 8.66797C14.5164 8.68984 14.4792 8.70625 14.4341 8.70625C14.3969 8.70625 14.3517 8.69804 14.3145 8.67617C14.2402 8.62968 14.195 8.55312 14.195 8.46289V7.48945H7.85453C8.52656 8.57226 8.93031 10.4125 9.70328 10.4125H10.4125V9.67968C10.4125 9.54297 10.5161 9.43633 10.6489 9.43633H13.0156C13.1484 9.43633 13.252 9.54297 13.252 9.67968V12.116C13.252 12.2527 13.1484 12.3594 13.0156 12.3594H10.6489C10.5161 12.3594 10.4125 12.2527 10.4125 12.116V11.3859H9.70328C7.70047 11.3859 7.54906 7.48945 6.39094 7.48945H3.72672C3.51156 8.32617 2.77312 8.95234 1.89391 8.95234C0.85 8.94961 0 8.07461 0 7C0 5.92539 0.85 5.05039 1.89391 5.05039C2.77312 5.05039 3.51422 5.67383 3.72672 6.51328C4.76531 6.51328 4.89281 6.77304 5.70828 4.86172C6.77344 2.42539 7.25156 2.61679 8.60094 2.61679C8.80016 2.04531 9.31812 1.64336 9.93969 1.64336C10.7233 1.64336 11.3608 2.29687 11.3608 3.10625C11.3608 3.91562 10.7259 4.56914 9.93969 4.56914C9.31812 4.56914 8.80016 4.16445 8.60094 3.5957H7.80937C7.03641 3.5957 6.63266 5.43867 5.96062 6.51875H14.1977V5.54531C14.1977 5.45508 14.2428 5.37851 14.3172 5.33203C14.3916 5.28554 14.4872 5.29375 14.5536 5.34023L16.9203 6.80312C16.9947 6.8332 17.0398 6.91523 17.0398 7Z" fill="white"/>
</g>
<defs>
<clipPath id="clip0_7_1134">
<rect width="17" height="14" fill="white"/>
</clipPath>
</defs>
</svg>
