<svg width="14" height="14" viewBox="0 0 14 14" fill="none" xmlns="http://www.w3.org/2000/svg">
<g clip-path="url(#clip0_1222_42893)">
<path d="M7 13.5C10.5899 13.5 13.5 10.5899 13.5 7C13.5 3.41015 10.5899 0.5 7 0.5C3.41015 0.5 0.5 3.41015 0.5 7C0.5 10.5899 3.41015 13.5 7 13.5Z" stroke="white" stroke-linecap="round" stroke-linejoin="round"/>
<path d="M5.5 10H8.5" stroke="white" stroke-linecap="round" stroke-linejoin="round"/>
<path d="M7 10V6.5H6" stroke="white" stroke-linecap="round" stroke-linejoin="round"/>
<path d="M7 4.25C6.86193 4.25 6.75 4.13807 6.75 4C6.75 3.86193 6.86193 3.75 7 3.75" stroke="white" stroke-linecap="round" stroke-linejoin="round"/>
<path d="M7 4.25C7.13807 4.25 7.25 4.13807 7.25 4C7.25 3.86193 7.13807 3.75 7 3.75" stroke="white" stroke-linecap="round" stroke-linejoin="round"/>
</g>
<defs>
<clipPath id="clip0_1222_42893">
<rect width="14" height="14" fill="white"/>
</clipPath>
</defs>
</svg>
