<svg width="14" height="14" viewBox="0 0 14 14" fill="none" xmlns="http://www.w3.org/2000/svg">
<path d="M6.99994 12.2499C7.72344 12.2499 8.30994 11.6634 8.30994 10.9399C8.30994 10.2164 7.72344 9.62988 6.99994 9.62988C6.27645 9.62988 5.68994 10.2164 5.68994 10.9399C5.68994 11.6634 6.27645 12.2499 6.99994 12.2499Z" stroke="white" stroke-linecap="round" stroke-linejoin="round"/>
<path d="M4.53003 7.99989C4.8552 7.66606 5.24395 7.40073 5.67332 7.21957C6.10269 7.0384 6.564 6.94507 7.03003 6.94507C7.49606 6.94507 7.95737 7.0384 8.38674 7.21957C8.81611 7.40073 9.20485 7.66606 9.53003 7.99989" stroke="white" stroke-linecap="round" stroke-linejoin="round"/>
<path d="M2.36011 6.31011C2.96882 5.69785 3.69257 5.21197 4.48973 4.88041C5.28689 4.54886 6.14174 4.37817 7.00511 4.37817C7.86847 4.37817 8.72332 4.54886 9.52048 4.88041C10.3176 5.21197 11.0414 5.69785 11.6501 6.31011" stroke="white" stroke-linecap="round" stroke-linejoin="round"/>
<path d="M0.5 4.44997C1.35343 3.59609 2.36674 2.91874 3.48204 2.4566C4.59733 1.99446 5.79275 1.75659 7 1.75659C8.20725 1.75659 9.40267 1.99446 10.518 2.4566C11.6333 2.91874 12.6466 3.59609 13.5 4.44997" stroke="white" stroke-linecap="round" stroke-linejoin="round"/>
</svg>
