<svg width="14" height="14" viewBox="0 0 14 14" fill="none" xmlns="http://www.w3.org/2000/svg">
<path d="M11 0.5H3C2.44772 0.5 2 0.947715 2 1.5V12.5C2 13.0523 2.44772 13.5 3 13.5H11C11.5523 13.5 12 13.0523 12 12.5V1.5C12 0.947715 11.5523 0.5 11 0.5Z" stroke="white" stroke-linecap="round" stroke-linejoin="round"/>
<path d="M7 11.5C8.38071 11.5 9.5 10.3807 9.5 9C9.5 7.61929 8.38071 6.5 7 6.5C5.61929 6.5 4.5 7.61929 4.5 9C4.5 10.3807 5.61929 11.5 7 11.5Z" stroke="white" stroke-linecap="round" stroke-linejoin="round"/>
<path d="M7 9.25C6.86193 9.25 6.75 9.13807 6.75 9C6.75 8.86193 6.86193 8.75 7 8.75" stroke="white" stroke-linecap="round" stroke-linejoin="round"/>
<path d="M7 9.25C7.13807 9.25 7.25 9.13807 7.25 9C7.25 8.86193 7.13807 8.75 7 8.75" stroke="white" stroke-linecap="round" stroke-linejoin="round"/>
<path d="M7 3.875C6.79289 3.875 6.625 3.70711 6.625 3.5C6.625 3.29289 6.79289 3.125 7 3.125" stroke="white" stroke-linecap="round" stroke-linejoin="round"/>
<path d="M7 3.875C7.20711 3.875 7.375 3.70711 7.375 3.5C7.375 3.29289 7.20711 3.125 7 3.125" stroke="white" stroke-linecap="round" stroke-linejoin="round"/>
</svg>
