<svg width="14" height="14" viewBox="0 0 14 14" fill="none" xmlns="http://www.w3.org/2000/svg">
<path d="M5.43 10.5699C4.85341 10.1654 4.37887 9.63219 4.0439 9.01258C3.70893 8.39297 3.52272 7.70391 3.5 6.99992C3.52272 6.29454 3.70886 5.60406 4.04377 4.98283C4.37867 4.36161 4.8532 3.8266 5.43 3.41992" stroke="white" stroke-linecap="round" stroke-linejoin="round"/>
<path d="M3.2 12C2.39255 11.4335 1.72816 10.6868 1.2595 9.81887C0.790845 8.95098 0.530806 7.98586 0.5 7C0.531199 6.01532 0.790365 5.0513 1.25712 4.18372C1.72388 3.31614 2.38551 2.56865 3.19 2" stroke="white" stroke-linecap="round" stroke-linejoin="round"/>
<path d="M8.57007 10.5699C9.14665 10.1654 9.6212 9.63219 9.95617 9.01258C10.2912 8.39297 10.4774 7.70391 10.5001 6.99992C10.4774 6.29454 10.2912 5.60406 9.9563 4.98283C9.62139 4.36161 9.14686 3.8266 8.57007 3.41992" stroke="white" stroke-linecap="round" stroke-linejoin="round"/>
<path d="M10.8 12C11.6074 11.4335 12.2718 10.6868 12.7405 9.81887C13.2091 8.95098 13.4692 7.98586 13.5 7C13.4688 6.01532 13.2096 5.0513 12.7429 4.18372C12.2761 3.31614 11.6145 2.56865 10.81 2" stroke="white" stroke-linecap="round" stroke-linejoin="round"/>
<path d="M7 7.5C7.27614 7.5 7.5 7.27614 7.5 7C7.5 6.72386 7.27614 6.5 7 6.5C6.72386 6.5 6.5 6.72386 6.5 7C6.5 7.27614 6.72386 7.5 7 7.5Z" stroke="white" stroke-linecap="round" stroke-linejoin="round"/>
</svg>
