<?xml version="1.0" encoding="UTF-8"?>
<svg xmlns="http://www.w3.org/2000/svg" xmlns:xlink="http://www.w3.org/1999/xlink" width="14px" height="14px" viewBox="0 0 14 14" version="1.1">
<g id="surface1">
<path style=" stroke:none;fill-rule:nonzero;fill:rgb(100%,100%,100%);fill-opacity:1;" d="M 13.125 3.5 L 1.3125 3.5 C 1.3125 2.898438 0.820312 2.40625 0.21875 2.40625 C 0.0976562 2.40625 0 2.503906 0 2.625 C 0 2.746094 0.0976562 2.84375 0.21875 2.84375 C 0.582031 2.84375 0.875 3.136719 0.875 3.5 L 0.875 11.375 C 0.875 11.496094 0.972656 11.59375 1.09375 11.59375 C 1.214844 11.59375 1.3125 11.496094 1.3125 11.375 L 1.3125 11.15625 L 1.75 11.15625 C 2.113281 11.15625 2.40625 10.863281 2.40625 10.5 L 13.125 10.5 C 13.609375 10.5 14 10.109375 14 9.625 L 14 4.375 C 14 3.890625 13.609375 3.5 13.125 3.5 Z M 13.5625 9.625 C 13.5625 9.867188 13.367188 10.0625 13.125 10.0625 L 2.1875 10.0625 C 2.066406 10.0625 1.96875 10.160156 1.96875 10.28125 L 1.96875 10.5 C 1.96875 10.621094 1.871094 10.71875 1.75 10.71875 L 1.3125 10.71875 L 1.3125 3.9375 L 13.125 3.9375 C 13.367188 3.9375 13.5625 4.132812 13.5625 4.375 Z M 13.5625 9.625 "/>
<path style=" stroke:none;fill-rule:nonzero;fill:rgb(100%,100%,100%);fill-opacity:1;" d="M 6.5625 5.25 C 5.9375 5.25 5.386719 5.582031 5.074219 6.078125 C 5.054688 6.101562 5.039062 6.128906 5.027344 6.160156 C 4.890625 6.410156 4.8125 6.695312 4.8125 7 C 4.8125 7.3125 4.894531 7.605469 5.039062 7.859375 C 5.042969 7.871094 5.050781 7.878906 5.054688 7.890625 C 5.363281 8.402344 5.921875 8.75 6.5625 8.75 C 7.527344 8.75 8.3125 7.964844 8.3125 7 C 8.3125 6.6875 8.230469 6.394531 8.085938 6.140625 C 8.082031 6.128906 8.074219 6.121094 8.070312 6.109375 C 7.761719 5.597656 7.203125 5.25 6.5625 5.25 Z M 5.25 7 C 5.25 6.878906 5.265625 6.761719 5.296875 6.652344 C 5.394531 6.738281 5.527344 6.835938 5.707031 6.941406 C 5.882812 7.042969 6.027344 7.105469 6.152344 7.148438 C 6.078125 7.207031 5.988281 7.269531 5.871094 7.335938 C 5.640625 7.46875 5.46875 7.527344 5.371094 7.546875 C 5.292969 7.378906 5.25 7.195312 5.25 7 Z M 7.875 7 C 7.875 7.113281 7.859375 7.222656 7.835938 7.324219 C 7.734375 7.238281 7.601562 7.136719 7.417969 7.03125 C 7.253906 6.9375 7.113281 6.875 6.996094 6.832031 C 7.066406 6.78125 7.148438 6.722656 7.253906 6.664062 C 7.484375 6.53125 7.65625 6.472656 7.753906 6.453125 C 7.832031 6.621094 7.875 6.804688 7.875 7 Z M 7.492188 6.074219 C 7.367188 6.113281 7.214844 6.179688 7.035156 6.285156 C 6.863281 6.382812 6.734375 6.476562 6.636719 6.558594 C 6.625 6.472656 6.617188 6.363281 6.617188 6.234375 C 6.617188 5.96875 6.652344 5.785156 6.683594 5.695312 C 7 5.722656 7.28125 5.863281 7.492188 6.074219 Z M 6.222656 5.730469 C 6.199219 5.859375 6.179688 6.023438 6.179688 6.234375 C 6.179688 6.425781 6.195312 6.582031 6.21875 6.707031 C 6.136719 6.671875 6.039062 6.625 5.925781 6.5625 C 5.699219 6.429688 5.5625 6.3125 5.496094 6.238281 C 5.671875 5.992188 5.925781 5.8125 6.222656 5.730469 Z M 5.632812 7.925781 C 5.757812 7.886719 5.910156 7.820312 6.089844 7.714844 C 6.261719 7.617188 6.390625 7.523438 6.488281 7.441406 C 6.5 7.527344 6.507812 7.636719 6.507812 7.765625 C 6.507812 8.03125 6.472656 8.214844 6.441406 8.304688 C 6.125 8.277344 5.84375 8.136719 5.632812 7.925781 Z M 6.902344 8.269531 C 6.925781 8.140625 6.945312 7.976562 6.945312 7.765625 C 6.945312 7.558594 6.925781 7.394531 6.902344 7.265625 C 6.984375 7.296875 7.085938 7.34375 7.199219 7.410156 C 7.4375 7.550781 7.578125 7.675781 7.640625 7.746094 C 7.464844 8 7.203125 8.1875 6.902344 8.269531 Z M 6.902344 8.269531 "/>
<path style=" stroke:none;fill-rule:nonzero;fill:rgb(100%,100%,100%);fill-opacity:1;" d="M 12.03125 4.59375 C 11.910156 4.59375 11.8125 4.691406 11.8125 4.8125 C 11.8125 4.933594 11.910156 5.03125 12.03125 5.03125 C 12.273438 5.03125 12.46875 5.226562 12.46875 5.46875 L 12.46875 8.53125 C 12.46875 8.773438 12.273438 8.96875 12.03125 8.96875 L 6.5625 8.96875 C 5.476562 8.96875 4.59375 8.085938 4.59375 7 C 4.59375 5.914062 5.476562 5.03125 6.5625 5.03125 L 11.15625 5.03125 C 11.277344 5.03125 11.375 4.933594 11.375 4.8125 C 11.375 4.691406 11.277344 4.59375 11.15625 4.59375 L 6.5625 4.59375 C 5.234375 4.59375 4.15625 5.671875 4.15625 7 C 4.15625 8.328125 5.234375 9.40625 6.5625 9.40625 L 12.03125 9.40625 C 12.515625 9.40625 12.90625 9.015625 12.90625 8.53125 L 12.90625 5.46875 C 12.90625 4.984375 12.515625 4.59375 12.03125 4.59375 Z M 12.03125 4.59375 "/>
<path style=" stroke:none;fill-rule:nonzero;fill:rgb(100%,100%,100%);fill-opacity:1;" d="M 3.0625 6.34375 L 2.40625 6.34375 C 2.164062 6.34375 1.96875 6.539062 1.96875 6.78125 L 1.96875 7.21875 C 1.96875 7.460938 2.164062 7.65625 2.40625 7.65625 L 3.0625 7.65625 C 3.304688 7.65625 3.5 7.460938 3.5 7.21875 L 3.5 6.78125 C 3.5 6.539062 3.304688 6.34375 3.0625 6.34375 Z M 2.40625 7.21875 L 2.40625 6.78125 L 3.0625 6.78125 L 3.0625 7.21875 Z M 2.40625 7.21875 "/>
<path style=" stroke:none;fill-rule:nonzero;fill:rgb(100%,100%,100%);fill-opacity:1;" d="M 3.0625 4.8125 L 2.40625 4.8125 C 2.164062 4.8125 1.96875 5.007812 1.96875 5.25 L 1.96875 5.6875 C 1.96875 5.929688 2.164062 6.125 2.40625 6.125 L 3.0625 6.125 C 3.304688 6.125 3.5 5.929688 3.5 5.6875 L 3.5 5.25 C 3.5 5.007812 3.304688 4.8125 3.0625 4.8125 Z M 2.40625 5.6875 L 2.40625 5.25 L 3.0625 5.25 L 3.0625 5.6875 Z M 2.40625 5.6875 "/>
<path style=" stroke:none;fill-rule:nonzero;fill:rgb(100%,100%,100%);fill-opacity:1;" d="M 3.0625 7.875 L 2.40625 7.875 C 2.164062 7.875 1.96875 8.070312 1.96875 8.3125 L 1.96875 8.75 C 1.96875 8.992188 2.164062 9.1875 2.40625 9.1875 L 3.0625 9.1875 C 3.304688 9.1875 3.5 8.992188 3.5 8.75 L 3.5 8.3125 C 3.5 8.070312 3.304688 7.875 3.0625 7.875 Z M 2.40625 8.75 L 2.40625 8.3125 L 3.0625 8.3125 L 3.0625 8.75 Z M 2.40625 8.75 "/>
<path style=" stroke:none;fill-rule:nonzero;fill:rgb(100%,100%,100%);fill-opacity:1;" d="M 11.8125 5.46875 L 11.15625 5.46875 C 11.035156 5.46875 10.9375 5.566406 10.9375 5.6875 C 10.9375 5.808594 11.035156 5.90625 11.15625 5.90625 L 11.8125 5.90625 C 11.933594 5.90625 12.03125 5.808594 12.03125 5.6875 C 12.03125 5.566406 11.933594 5.46875 11.8125 5.46875 Z M 11.8125 5.46875 "/>
<path style=" stroke:none;fill-rule:nonzero;fill:rgb(100%,100%,100%);fill-opacity:1;" d="M 11.8125 8.09375 L 11.15625 8.09375 C 11.035156 8.09375 10.9375 8.191406 10.9375 8.3125 C 10.9375 8.433594 11.035156 8.53125 11.15625 8.53125 L 11.8125 8.53125 C 11.933594 8.53125 12.03125 8.433594 12.03125 8.3125 C 12.03125 8.191406 11.933594 8.09375 11.8125 8.09375 Z M 11.8125 8.09375 "/>
<path style=" stroke:none;fill-rule:nonzero;fill:rgb(100%,100%,100%);fill-opacity:1;" d="M 11.8125 6.125 L 11.15625 6.125 C 11.035156 6.125 10.9375 6.222656 10.9375 6.34375 C 10.9375 6.464844 11.035156 6.5625 11.15625 6.5625 L 11.8125 6.5625 C 11.933594 6.5625 12.03125 6.464844 12.03125 6.34375 C 12.03125 6.222656 11.933594 6.125 11.8125 6.125 Z M 11.8125 6.125 "/>
<path style=" stroke:none;fill-rule:nonzero;fill:rgb(100%,100%,100%);fill-opacity:1;" d="M 11.8125 6.78125 L 11.15625 6.78125 C 11.035156 6.78125 10.9375 6.878906 10.9375 7 C 10.9375 7.121094 11.035156 7.21875 11.15625 7.21875 L 11.8125 7.21875 C 11.933594 7.21875 12.03125 7.121094 12.03125 7 C 12.03125 6.878906 11.933594 6.78125 11.8125 6.78125 Z M 11.8125 6.78125 "/>
<path style=" stroke:none;fill-rule:nonzero;fill:rgb(100%,100%,100%);fill-opacity:1;" d="M 11.8125 7.4375 L 11.15625 7.4375 C 11.035156 7.4375 10.9375 7.535156 10.9375 7.65625 C 10.9375 7.777344 11.035156 7.875 11.15625 7.875 L 11.8125 7.875 C 11.933594 7.875 12.03125 7.777344 12.03125 7.65625 C 12.03125 7.535156 11.933594 7.4375 11.8125 7.4375 Z M 11.8125 7.4375 "/>
</g>
</svg>
