<svg width="14" height="14" viewBox="0 0 14 14" fill="none" xmlns="http://www.w3.org/2000/svg">
<path d="M3 9.5L0.5 7L3 4.5" stroke="white" stroke-linecap="round" stroke-linejoin="round"/>
<path d="M11 9.5L13.5 7L11 4.5" stroke="white" stroke-linecap="round" stroke-linejoin="round"/>
<path d="M7 7.25C6.86193 7.25 6.75 7.13807 6.75 7C6.75 6.86193 6.86193 6.75 7 6.75" stroke="white" stroke-linecap="round" stroke-linejoin="round"/>
<path d="M7 7.25C7.13807 7.25 7.25 7.13807 7.25 7C7.25 6.86193 7.13807 6.75 7 6.75" stroke="white" stroke-linecap="round" stroke-linejoin="round"/>
<path d="M9.5 7.25C9.36193 7.25 9.25 7.13807 9.25 7C9.25 6.86193 9.36193 6.75 9.5 6.75" stroke="white" stroke-linecap="round" stroke-linejoin="round"/>
<path d="M9.5 7.25C9.63807 7.25 9.75 7.13807 9.75 7C9.75 6.86193 9.63807 6.75 9.5 6.75" stroke="white" stroke-linecap="round" stroke-linejoin="round"/>
<path d="M4.5 7.25C4.36193 7.25 4.25 7.13807 4.25 7C4.25 6.86193 4.36193 6.75 4.5 6.75" stroke="white" stroke-linecap="round" stroke-linejoin="round"/>
<path d="M4.5 7.25C4.63807 7.25 4.75 7.13807 4.75 7C4.75 6.86193 4.63807 6.75 4.5 6.75" stroke="white" stroke-linecap="round" stroke-linejoin="round"/>
</svg>
