<svg width="14" height="14" viewBox="0 0 14 14" fill="none" xmlns="http://www.w3.org/2000/svg">
<path d="M4.25003 0.5L2.00003 5.81C1.96891 5.88575 1.95688 5.96798 1.96498 6.04947C1.97308 6.13096 2.00107 6.20922 2.0465 6.27736C2.09192 6.34549 2.15339 6.40143 2.2255 6.44025C2.2976 6.47908 2.37814 6.49959 2.46003 6.5H5.25003L3.25003 13.5L11.84 5.36C11.9114 5.29124 11.9607 5.20284 11.9817 5.106C12.0027 5.00917 11.9945 4.90827 11.958 4.81612C11.9216 4.72397 11.8586 4.64473 11.7771 4.58844C11.6955 4.53216 11.5991 4.50137 11.5 4.5H7.75003L9.75003 0.5H4.25003Z" stroke="white" stroke-linecap="round" stroke-linejoin="round"/>
</svg>
